# xmcd CD database file
#
# Track frame offsets:
#	225
#	13353
#	35671
#	48963
#	67545
#	90352
#	104779
#	117315
#	140787
#	155342
#	182286
#	199837
#	221425
#	239213
#	258773
#	274126
#	287386
#	310447
#
# Disc length: 4324 seconds
#
# Revision: 0
# Processed by: cddbd v1.5.2PL0 Copyright (c) Steve Scherf et al.
# Submitted via: CDex 1.70beta2
#
DISCID=0710e112
DTITLE=Various Artist - Jazz Festival Idstein 2006
DYEAR=2006
DGENRE=Jazz
TTITLE0=Jazzkonfekt - One step behind
TTITLE1=Candycream - Song No.2 feat. B-JU
TTITLE2=Dennis wittberg - Meine Oma fährt Motorrad
TTITLE3=Immergruen - Bitte warten
TTITLE4=Bonefunk - Mastertrack
TTITLE5=Friends in high places - The same old thing
TTITLE6=Java five - sweet georgia brown
TTITLE7=Klezmer quartett heidelberg - Bubamara
TTITLE8=Marvin dorfler big band - Mack the knife
TTITLE9=Mi tabo - Summertime
TTITLE10=Schampus all stars - Jeepers creepers
TTITLE11=Sebastian sternal trio - Apeman
TTITLE12=Sarah's ballroom - Sun
TTITLE13=Stringtett - In a quiet moment
TTITLE14=Swinging Tuxedos - Route 66
TTITLE15=Schoppeschlepper - Bretzelbube Boogie
TTITLE16=Terminal a - Santama
TTITLE17=Tea for three - Tea for 2
EXTD=YEAR: 2006
EXTT0=
EXTT1=
EXTT2=
EXTT3=
EXTT4=
EXTT5=
EXTT6=
EXTT7=
EXTT8=
EXTT9=
EXTT10=
EXTT11=
EXTT12=
EXTT13=
EXTT14=
EXTT15=
EXTT16=
EXTT17=
PLAYORDER=
